<svg width="7.0625rem" height="2.3125rem" viewBox="0 0 113 37" fill="none" xmlns="http://www.w3.org/2000/svg"><path d="M0 2.53h1.113v1.297a2.54 2.54 0 011.018-1.05c.444-.252.955-.377 1.534-.377.905 0 1.63.285 2.172.856.544.562.815 1.401.815 2.517v.26c0 .588-.072 1.102-.217 1.543a3.083 3.083 0 01-.611 1.09c-.263.285-.58.502-.95.649-.362.147-.765.22-1.209.22-.615 0-1.13-.13-1.547-.39a2.608 2.608 0 01-.923-.972V12H0V2.53zm3.394 5.993c.29 0 .561-.052.814-.155.254-.113.471-.273.652-.48.19-.208.335-.467.434-.779.11-.311.163-.67.163-1.077v-.259a2.87 2.87 0 00-.163-.999c-.1-.294-.244-.54-.434-.74a1.717 1.717 0 00-.652-.466 2.128 2.128 0 00-.814-.156 2.49 2.49 0 00-.896.156 1.892 1.892 0 00-.692.415 1.88 1.88 0 00-.61 1.401v1.038c-.001.311.053.596.162.856.108.26.257.48.448.661.19.182.42.325.692.429.271.103.57.155.896.155zm6.804 1.012a3.3 3.3 0 01-1.058-.156 2.327 2.327 0 01-.76-.454 1.895 1.895 0 01-.476-.674 2.196 2.196 0 01-.163-.856c0-.684.208-1.177.625-1.48.425-.302 1.031-.453 1.819-.453h2.335v-.467c0-.589-.14-.995-.421-1.22-.271-.225-.683-.337-1.235-.337-.516 0-.892.095-1.127.285-.235.182-.367.39-.394.623H8.15c.018-.277.095-.532.23-.765.145-.243.335-.45.57-.623.245-.173.534-.307.87-.402a3.749 3.749 0 011.11-.156c.851 0 1.526.195 2.023.584.507.38.76 1.007.76 1.88v3.75c.01.268.032.532.068.791h-1.045a6.792 6.792 0 01-.054-.557 12.422 12.422 0 01-.014-.61c-.19.363-.498.67-.923.92-.425.252-.941.377-1.548.377zm.258-1.038c.28 0 .543-.034.788-.103.253-.078.475-.186.665-.325a1.6 1.6 0 00.448-.532 1.54 1.54 0 00.163-.726v-.467h-2.131c-.444 0-.792.086-1.046.26-.253.164-.38.427-.38.79 0 .32.118.584.353.792.244.208.624.311 1.14.311zm7.608 1.038c-.904 0-1.615-.181-2.13-.545-.517-.363-.802-.873-.856-1.53h1.195c.063.337.248.596.556.778.317.173.729.26 1.235.26.625 0 1.078-.1 1.358-.3.29-.207.434-.453.434-.739 0-.337-.117-.6-.353-.79-.235-.2-.642-.3-1.221-.3h-1.236v-.933H18.2c.498 0 .851-.091 1.06-.273.216-.181.325-.437.325-.765 0-.26-.127-.484-.38-.675-.254-.19-.634-.285-1.14-.285-.553 0-.955.086-1.209.26a1.034 1.034 0 00-.448.713h-1.194c.027-.286.108-.55.244-.792.145-.25.34-.467.584-.648a2.66 2.66 0 01.869-.415 3.987 3.987 0 011.153-.156c.462 0 .86.052 1.195.156.344.095.63.233.855.415.227.173.394.38.503.623.108.242.163.51.163.804a1.5 1.5 0 01-.258.869c-.172.242-.448.432-.828.57.506.13.86.338 1.059.624a1.7 1.7 0 01.298.998c0 .286-.063.554-.19.805a1.9 1.9 0 01-.57.661 2.977 2.977 0 01-.937.441 4.458 4.458 0 01-1.29.17zM22.55 2.53h1.113v1.297a2.54 2.54 0 011.018-1.05c.444-.252.955-.377 1.534-.377.905 0 1.63.285 2.172.856.543.562.815 1.401.815 2.517v.26c0 .588-.073 1.102-.218 1.543a3.082 3.082 0 01-.61 1.09c-.263.285-.58.502-.95.649a3.19 3.19 0 01-1.209.22c-.615 0-1.131-.13-1.547-.39a2.607 2.607 0 01-.924-.972V12H22.55V2.53zm3.394 5.993c.29 0 .56-.052.814-.155.254-.113.47-.273.652-.48.19-.208.335-.467.434-.779.109-.311.163-.67.163-1.077v-.259a2.87 2.87 0 00-.163-.999c-.1-.294-.244-.54-.434-.74a1.716 1.716 0 00-.652-.466 2.128 2.128 0 00-.814-.156 2.49 2.49 0 00-.896.156 1.892 1.892 0 00-.693.415 1.88 1.88 0 00-.61 1.401v1.038c0 .311.054.596.162.856a1.929 1.929 0 001.141 1.09c.271.103.57.155.896.155zm6.804 1.012c-.398 0-.751-.052-1.059-.156a2.328 2.328 0 01-.76-.454 1.895 1.895 0 01-.475-.674 2.196 2.196 0 01-.163-.856c0-.684.208-1.177.625-1.48.425-.302 1.031-.453 1.819-.453h2.335v-.467c0-.589-.14-.995-.421-1.22-.272-.225-.684-.337-1.236-.337-.515 0-.891.095-1.126.285-.236.182-.367.39-.394.623h-1.195c.018-.277.095-.532.231-.765.145-.243.335-.45.57-.623a2.83 2.83 0 01.869-.402 3.75 3.75 0 011.113-.156c.851 0 1.525.195 2.023.584.507.38.76 1.007.76 1.88v3.75c.01.268.032.532.068.791h-1.045a6.705 6.705 0 01-.054-.557 12.29 12.29 0 01-.014-.61c-.19.363-.498.67-.923.92-.426.252-.941.377-1.548.377zm.258-1.038c.28 0 .543-.034.788-.103.253-.078.475-.186.665-.325a1.6 1.6 0 00.448-.532c.108-.207.163-.45.163-.726v-.467h-2.132c-.443 0-.792.086-1.045.26-.253.164-.38.427-.38.79 0 .32.117.584.353.792.244.208.624.311 1.14.311zm8.151 1.038a3.45 3.45 0 01-1.344-.26 3.133 3.133 0 01-1.072-.752 3.89 3.89 0 01-.72-1.232c-.172-.485-.258-1.034-.258-1.648v-.26c0-.778.06-1.47.177-2.075.117-.614.317-1.133.597-1.557A3.03 3.03 0 0139.664.74c.47-.242 1.059-.38 1.765-.415.57-.026 1.068-.047 1.493-.065.425-.025.788-.112 1.086-.259v1.103c-.145.078-.412.138-.8.181a18.7 18.7 0 01-1.576.091c-.434.009-.819.06-1.154.156a2.174 2.174 0 00-.841.454c-.227.207-.407.48-.543.817-.127.329-.208.735-.245 1.22a2.481 2.481 0 011.005-1.09c.453-.268.977-.402 1.575-.402.461 0 .882.078 1.262.233a2.817 2.817 0 011.63 1.66c.153.399.23.848.23 1.35v.26c0 .536-.086 1.02-.258 1.452a3.447 3.447 0 01-.706 1.103 3.07 3.07 0 01-1.072.7 3.665 3.665 0 01-1.358.247zm0-1.038c.634 0 1.154-.207 1.561-.622.408-.424.611-1.038.611-1.843v-.259a2.4 2.4 0 00-.163-.908 2.047 2.047 0 00-.448-.688c-.19-.199-.42-.35-.692-.454a2.344 2.344 0 00-.869-.155c-.316 0-.61.051-.882.155a1.885 1.885 0 00-.679.454c-.19.19-.34.42-.448.688a2.4 2.4 0 00-.163.908v.26c0 .38.054.726.163 1.037.118.303.276.562.475.779a2.091 2.091 0 001.534.648zm7.87 1.038c-.461 0-.9-.07-1.316-.207a3.232 3.232 0 01-1.1-.65 3.216 3.216 0 01-.76-1.102c-.19-.44-.285-.955-.285-1.544v-.259c0-.554.095-1.042.285-1.466.19-.424.443-.774.76-1.05a3.07 3.07 0 011.1-.636 3.922 3.922 0 011.316-.221c.462 0 .9.074 1.317.22a3.077 3.077 0 011.86 1.687c.19.424.285.912.285 1.466v.26c0 .588-.095 1.102-.285 1.543-.19.441-.443.809-.76 1.103a3.232 3.232 0 01-1.1.649 4.148 4.148 0 01-1.317.207zm0-1.038c.272 0 .543-.043.815-.13a2.07 2.07 0 00.72-.428c.208-.198.375-.454.502-.765.135-.311.203-.692.203-1.142v-.259c0-.415-.068-.77-.203-1.064a2.086 2.086 0 00-.503-.726 1.915 1.915 0 00-.72-.415 2.67 2.67 0 00-.814-.13 2.67 2.67 0 00-.814.13 1.915 1.915 0 00-.72.415c-.208.19-.38.432-.516.726-.126.294-.19.649-.19 1.064v.26c0 .45.064.83.19 1.141.136.311.308.567.516.765.209.19.448.333.72.429.271.086.543.13.814.13zm6.46-4.955H53.03V2.53h6.109v1.012h-2.457v5.863h-1.195V3.542zm4.809-1.012h1.195v2.88h.95l2.688-2.88h1.412l-3.122 3.295 3.258 3.58h-1.52l-2.716-3.01h-.95v3.01h-1.195V2.53zm9.522 7.005a3.31 3.31 0 01-1.058-.156 2.327 2.327 0 01-.76-.454 1.894 1.894 0 01-.476-.674 2.196 2.196 0 01-.163-.856c0-.684.208-1.177.625-1.48.425-.302 1.031-.453 1.819-.453h2.335v-.467c0-.589-.14-.995-.421-1.22-.271-.225-.683-.337-1.235-.337-.516 0-.892.095-1.127.285-.236.182-.367.39-.394.623H67.77c.018-.277.094-.532.23-.765.145-.243.335-.45.57-.623.245-.173.534-.307.87-.402a3.749 3.749 0 011.113-.156c.85 0 1.524.195 2.022.584.507.38.76 1.007.76 1.88v3.75c.01.268.032.532.068.791h-1.045a6.792 6.792 0 01-.054-.557 12.422 12.422 0 01-.014-.61c-.19.363-.498.67-.923.92-.425.252-.941.377-1.548.377zm.258-1.038c.28 0 .543-.034.788-.103.253-.078.475-.186.665-.325a1.6 1.6 0 00.448-.532c.108-.207.163-.45.163-.726v-.467h-2.132c-.443 0-.791.086-1.045.26-.253.164-.38.427-.38.79 0 .32.118.584.353.792.244.208.624.311 1.14.311zm11.138 1.038c-.461 0-.891-.07-1.29-.207a2.862 2.862 0 01-1.031-.65 3.207 3.207 0 01-.693-1.102c-.163-.44-.244-.955-.244-1.544v-.259c0-.554.09-1.042.272-1.466a3 3 0 01.719-1.05 2.868 2.868 0 011.032-.636c.398-.147.81-.221 1.235-.221.425 0 .806.056 1.14.169.344.112.639.268.883.467.253.199.457.432.61.7.164.268.281.558.354.87h-1.222a2.5 2.5 0 00-.258-.455 1.295 1.295 0 00-.353-.376 1.594 1.594 0 00-.489-.246 2.213 2.213 0 00-.665-.091 2.06 2.06 0 00-.76.143 1.726 1.726 0 00-.652.415c-.19.181-.344.42-.461.713-.109.294-.163.649-.163 1.064v.26c0 .44.054.821.163 1.141.117.311.271.567.461.765.19.19.407.333.652.429.244.086.498.13.76.13.444 0 .815-.104 1.113-.312.308-.208.525-.493.652-.856h1.222c-.172.683-.525 1.224-1.06 1.621-.533.39-1.176.584-1.927.584zm6.461 0a3.31 3.31 0 01-1.059-.156 2.328 2.328 0 01-.76-.454 1.895 1.895 0 01-.475-.674 2.196 2.196 0 01-.163-.856c0-.684.208-1.177.624-1.48.426-.302 1.032-.453 1.82-.453h2.334v-.467c0-.589-.14-.995-.42-1.22-.272-.225-.684-.337-1.236-.337-.516 0-.891.095-1.127.285-.235.182-.366.39-.393.623h-1.195c.018-.277.095-.532.23-.765a2.13 2.13 0 01.571-.623 2.82 2.82 0 01.869-.402 3.749 3.749 0 011.113-.156c.85 0 1.525.195 2.023.584.507.38.76 1.007.76 1.88v3.75c.01.268.032.532.068.791h-1.045a6.705 6.705 0 01-.055-.557 12.29 12.29 0 01-.013-.61c-.19.363-.498.67-.923.92-.426.252-.942.377-1.548.377zm.258-1.038c.28 0 .543-.034.787-.103.254-.078.475-.186.666-.325.19-.147.339-.324.448-.532.108-.207.162-.45.162-.726v-.467h-2.13c-.444 0-.793.086-1.046.26-.254.164-.38.427-.38.79 0 .32.117.584.353.792.244.208.624.311 1.14.311zm5.164-5.967h1.195v5.189l3.72-5.19h1.195v6.876h-1.195V4.216l-3.72 5.19h-1.195V2.53zm3.055-.844c-.706 0-1.222-.142-1.548-.428C94.28.964 94.116.545 94.116 0h1.167c0 .588.29.882.869.882.597 0 .896-.294.896-.882h1.14c0 .545-.163.964-.488 1.258-.326.286-.842.428-1.548.428zm6.67 1.856h-2.457V2.53h6.109v1.012h-2.457v5.863h-1.195V3.542zm6.594 5.993c-.398 0-.751-.052-1.059-.156a2.331 2.331 0 01-.76-.454 1.889 1.889 0 01-.475-.674 2.189 2.189 0 01-.163-.856c0-.684.208-1.177.624-1.48.426-.302 1.032-.453 1.819-.453h2.335v-.467c0-.589-.14-.995-.42-1.22-.272-.225-.684-.337-1.236-.337-.516 0-.891.095-1.127.285-.235.182-.366.39-.393.623h-1.195c.018-.277.095-.532.231-.765.145-.243.335-.45.57-.623a2.82 2.82 0 01.869-.402 3.75 3.75 0 011.113-.156c.851 0 1.525.195 2.023.584.507.38.76 1.007.76 1.88v3.75c.009.268.032.532.068.791h-1.045a6.809 6.809 0 01-.055-.557 12.465 12.465 0 01-.013-.61c-.19.363-.498.67-.923.92-.426.252-.942.377-1.548.377zm.258-1.038c.281 0 .543-.034.787-.103.254-.078.476-.186.666-.325.19-.147.339-.324.448-.532.108-.207.162-.45.162-.726v-.467h-2.131c-.443 0-.792.086-1.045.26-.254.164-.38.427-.38.79 0 .32.117.584.353.792.244.208.624.311 1.14.311zm-3.196 11.879c-.262-.702-.784-1.248-1.393-1.717a8.533 8.533 0 00-2.264-1.092c-1.045-.235-2.09-.313-3.134-.313H82.274v15.22l-11.232-15.22H67.3l-11.232 15.22c0-.235.087-.469.087-.781V29.43c0-.703-.087-1.405-.348-2.03-.261-.702-.784-1.248-1.393-1.717a8.516 8.516 0 00-2.264-1.092c-1.044-.234-2.09-.313-3.134-.313H37.348c-1.654 0-1.654-.624-1.654-.936v-1.093c0-.312 0-.936 1.654-.936h17.936V17.02H37.348c-1.044-.078-2.176.078-3.134.313a4.615 4.615 0 00-2.264 1.092c-.61.468-1.132 1.015-1.393 1.717-.261.625-.348 1.327-.348 2.03v1.092c0 .702.087 1.405.348 2.03.261.702.784 1.248 1.393 1.716.697.468 1.48.859 2.264 1.093 1.045.234 2.09.312 3.134.312H49.19c1.654 0 1.654.624 1.654.937v2.263c0 .312 0 .936-1.654.936H31.776L20.458 17.176h-3.744L2 37h6.356l9.925-13.892L28.206 37h30.996L69.3 23.108 79.226 37h8.794v-6.712h11.84c1.045.078 2.177-.078 3.135-.312a4.616 4.616 0 002.264-1.093c.609-.468 1.132-1.014 1.393-1.717.261-.624.348-1.326.348-2.029v-2.654c0-.702-.261-1.404-.522-2.107zm-5.137 1.951v2.732c0 .312 0 .937-1.654.937H87.846v-4.45h11.84c1.655 0 1.655.47 1.655.781z" fill="#3D3D3D"/></svg>